<svg xmlns="http://www.w3.org/2000/svg" version="1.1" xmlns:xlink="http://www.w3.org/1999/xlink" xmlns:svgjs="http://svgjs.com/svgjs" width="625.41" height="821.44"><svg version="1.1" id="SvgjsSvg1000" xmlns="http://www.w3.org/2000/svg" xmlns:xlink="http://www.w3.org/1999/xlink" x="0px" y="0px" viewBox="0 0 625.41 821.44" style="enable-background:new 0 0 625.41 821.44;" xml:space="preserve">
<style type="text/css">
	.st0{fill-rule:evenodd;clip-rule:evenodd;}
</style><style class="darkreader darkreader--sync" media="screen"></style>
<path class="st0" d="M192.7,546.22c0.76,3.09-18.54,41.28-19,75s12.49,45.39,9,70c-3.49,24.61-23.87,64.4-21,83
	c2.87,18.6,16.66,29.37,13,33c-3.66,3.63-33.99,0.47-38,0c-4.01-0.47-10.28-8.44-16-30c-5.72-21.56,11.78-51.18,12-75
	c0.22-23.82-14.53,2.72-22,33c-1.44,4.19-21,3-21,3l-1-5c-1.16-17.76-4-42-4-42s-21.66,39.94-25,79c-1.89,22.1,0.09,31.83-3,33
	c-3.09,1.17-43.45,1.49-46-2c-2.55-3.49,13.85-54.55,28-78c14.15-23.45,38.19-71.26,43-98c4.81-26.74,26-73,26-73s10.47-2.76,17-2
	c6.53,0.76,10.02,2.16,9,5c-1.02,2.84-18.08,50.23-18,67c0.09,19.97-7.62,43.76-2,44c4.78-3.76,19.41-28.65,26-57
	c3.17-13.62,9.9-32.84,12-41c3.07-11.91,9.61-22.19,23-22S191.94,543.13,192.7,546.22z"></path>
<path class="st0" d="M314.7,747.22c-5.68-19.53,0.53-105.75-2-149c-2.53-43.25-31.01-62.42-60-60c-48.22,4.03-69.08,62.26-55,108
	c11.38,36.97,3.68,74.35-10,100s-14.39,40.24,1,51s65.26,9.65,100,9s49.38-3.43,52-17S320.38,766.75,314.7,747.22z M276.7,751.22
	c-16.38,9.81-37.05,6.79-47-7s4.18-22.9,7-48s-10.02-51.94-11-78c-0.98-26.06,7.5-46.63,30-46c13.78,0.39,31.73,15.3,29,38
	s-10.17,44.2,2,79C294.85,725.84,293.09,741.41,276.7,751.22z"></path>
<path class="st0" d="M368.7,549.22c15.82,0.88,41.09,7.9,40,32c-1.09,24.1-6.53,22.38-20,23c-7.12-1.33-2.08-4.2-8-9
	c-5.92-4.8-19.14-0.01-21,9c-1.86,9.01-2.46,22.52,28,31c30.46,8.48,57.38,31.84,60,54c2.62,22.16,18.34,81.2-23,99
	c-41.34,17.8-83.21-3.93-94-52c-10.79-48.07-5.17-62,16-61c21.17,1,32.04,11.4,31,16c-1.04,4.6-13.37,7.01-15,14
	c-1.63,6.99-5.04,42.93,17,47c22.04,4.07,44.8-9.18,41-45s-29.03-31.88-56-48c-26.97-16.12-46.81-35-30-81
	C344.19,552.26,362.73,548.89,368.7,549.22z"></path>
<path class="st0" d="M454.7,557.22c22.41-0.39,57.3,18.1,52,34c-5.3,15.9-14.25,17.06-21,14c-6.75-3.06-11.54-16.43-21-11
	c-9.46,5.43-9.54,24.82,6,33c15.54,8.18,66.69,15.66,89,39c22.31,23.34,73.57,87.96,49,110c-34.01,30.51-58.15,22.12-95,20
	c-36.85-2.12-49.9-0.83-52-18c-1.75-14.28,4.6-90.75,29-89c24.4,1.75,38.72,17.18,39,24c0.28,6.82,3.14,19.02-3,24
	c-10.57,8.58-22.95-19.76-29-5c-3.39,8.27,2.81,34.27,28,36c25.19,1.73,57.01-9.96,43-37c-8.15-15.73-19.93-52.23-54-58
	c-34.07-5.77-66.69-19.73-78-43C425.39,606.95,411.5,557.96,454.7,557.22z"></path>
<path class="st0" d="M65.7,630.22"></path>
<path class="st0" d="M157.7,245.22c0,0,42.02,6.01,52,7s38,2,38,2l10,29c0,0-5.51-0.58-12,0c-6.49,0.58-12,2-12,2s13.27,24.7,13,89
	c-0.27,64.3-8.75,106.57-25,134c-6.94,11.71-8,10-8,10l-33,2c0,0,32.67-50.19,42-93s-2.78-89.63-15-121s-23.08-32.72-28-32
	c-4.91,0.72-6-1-6-1L157.7,245.22z"></path>
<path class="st0" d="M258.7,254.22l24,1c0,0,9.76,41.73,10,59c0.24,17.27-3,39-3,39l15-2c0,0,0.53-26.09,9-58
	c8.47-31.91,13-39,13-39h27c0,0-23.37,64.78-27,104s3.61,91.68,22,124c20.1,31.04,21.08,35.94,20,38c-1.08,2.06-12.29,1.04-20,1
	c-7.71-0.04-18,1-18,1s-18.65-45.9-23-81c-4.35-35.1-4-64-4-64h-19c0,0-7.73,35.76-9,70c-1.27,34.24,5.83,66.3,5,69
	c-0.83,2.7-14.36,1.83-22,2c-7.64,0.17-15.75,1.18-18-1c-2.25-2.18,7.35-62.49,18-110C268.37,364.06,270.62,297.2,258.7,254.22z"></path>
<path class="st0" d="M374.7,253.22c0,0,30.87-1.73,41-3c10.13-1.27,17-3,17-3l-9,19c0,0-16.62,4.6-28,7c-11.38,2.4-12.86,3.4-23,28
	c-10.14,24.6-10.8,48.77-9,51c1.8,2.23,11,2,11,2v18c0,0-12.5,1.53-14,7c-1.5,5.47,14.64,78.68,21,88c6.36,9.32,38.1,27.37,41,31
	c2.9,3.63,9.76,21.79,8,26c-1.76,4.21-37.11-9.96-53-25c-15.89-15.04-38.48-86-38-135C340.19,315.22,360.7,264.94,374.7,253.22z"></path>
<path class="st0" d="M104.7,37.22c0,0-11.48,70.86-1,105s69,93,69,93l-27-1c0,0-52.25-22.34-72-86c-24.46-78.84-6-119-6-119
	L104.7,37.22z"></path>
<path class="st0" d="M134.7,40.22c0,0-13.44,30.97-5,72s32.2,85.14,47,101s24.36,22.8,35,25c10.64,2.2,24,2,24,2s-36.24-32.89-54-68
	s-20-71-20-71s17.68,40.27,43,55c12.61,10.6,59.84,50.7,63,86c2.88,2.09,20,0,20,0s-8.91-73.71-9-107c-0.09-33.29,6-84,6-84l-37-4
	c0,0-0.63,56.16,4,78s2,44,2,44s-21.86-34.84-40-47c-18.14-12.16-31.63-38.38-35-51s-2-27-2-27L134.7,40.22z"></path>
<path class="st0" d="M298.7,49.22l-6,37c0,0,6.22-4.34,19-4c12.78,0.34,33,1,33,1s-0.29,41.02-6,60c-5.71,18.98-29.44,78.34-29,91
	c-1.6,7.48,4.48,4.72,23,4c9.11-0.35,13,2,13,2s20.56-69.79,28-94c7.44-24.21,7-67,7-67s24.54-5.32,32-7c7.46-1.68,17.56-3.44,22-8
	c4.44-4.56,4-31,4-31s-43.2,11.39-74,13C333.9,47.83,298.7,49.22,298.7,49.22z"></path>
<path class="st0" d="M504.7,13.22c-7.65,1.15-26.98,7.09-44,25c-17.97,18.91-24.71,58.95-30,81c-5.29,22.05-21.85,55.79-35,72
	c-13.15,16.21-21.65,32.24-9,44c12.65,11.76,34.28-1.12,53-15c18.72-13.88,51.45-27.51,76-57c19.7-23.66,42.82-62.81,46-97
	C564.89,32.03,541.74,7.65,504.7,13.22z M520.7,94.22c-15.57,36.39-52.93,78.14-68,85c-15.07,6.86-21.08,1.39-13-10
	c8.08-11.39,19.73-21.92,25-60c3.79-27.44,22.11-59.53,40-61C525.58,46.5,536.27,57.83,520.7,94.22z"></path>
</svg><style>@media (prefers-color-scheme: light) { :root { filter: none; } }
@media (prefers-color-scheme: dark) { :root { filter: invert(100%); } }
</style></svg>