<?xml version="1.0" encoding="utf-8"?>
<!-- Generator: Adobe Illustrator 26.2.0, SVG Export Plug-In . SVG Version: 6.00 Build 0)  -->
<svg version="1.1" id="Layer_1" xmlns="http://www.w3.org/2000/svg" xmlns:xlink="http://www.w3.org/1999/xlink" x="0px" y="0px"
	 viewBox="0 0 606 797" style="enable-background:new 0 0 606 797;" xml:space="preserve">
<style type="text/css">
	.st0 {
		fill-rule:evenodd;
		clip-rule:nonzero;
		fill:white;
		}
</style>
<path class="st0" d="M183,534c0.8,3.1-18.5,41.3-19,75s12.5,45.4,9,70c-3.5,24.6-23.9,64.4-21,83c2.9,18.6,16.7,29.4,13,33
	s-34,0.5-38,0c-4-0.5-10.3-8.4-16-30s11.8-51.2,12-75c0.2-23.8-14.5,2.7-22,33c-1.4,4.2-21,3-21,3l-1-5c-1.2-17.8-4-42-4-42
	s-21.7,39.9-25,79c-1.9,22.1,0.1,31.8-3,33s-43.5,1.5-46-2s13.9-54.6,28-78s38.2-71.3,43-98s26-73,26-73s10.5-2.8,17-2
	c6.5,0.8,10,2.2,9,5s-18.1,50.2-18,67c0.1,20-7.6,43.8-2,44c4.8-3.8,19.4-28.6,26-57c3.2-13.6,9.9-32.8,12-41
	c3.1-11.9,9.6-22.2,23-22S182.2,530.9,183,534z"/>
<path class="st0" d="M243,526c29-2.4,57.5,16.7,60,60s-3.7,129.5,2,149s28.6,28.4,26,42c-2.6,13.6-17.3,16.4-52,17s-84.6,1.8-100-9
	s-14.7-25.3-1-51s21.4-63,10-100C173.9,588.3,194.8,530,243,526z"/>
<path class="st0" d="M246,560c13.8,0.4,31.7,15.3,29,38c-2.7,22.7-10.2,44.2,2,79c8.1,36.6,6.4,52.2-10,62s-37,6.8-47-7
	c-10-13.8,4.2-22.9,7-48c2.8-25.1-10-51.9-11-78S223.5,559.4,246,560z"/>
<path class="st0" d="M359,537c15.8,0.9,41.1,7.9,40,32c-1.1,24.1-6.5,22.4-20,23c-7.1-1.3-2.1-4.2-8-9s-19.1,0-21,9s-2.5,22.5,28,31
	c30.5,8.5,57.4,31.8,60,54c2.6,22.2,18.3,81.2-23,99s-83.2-3.9-94-52s-5.2-62,16-61s32,11.4,31,16c-1,4.6-13.4,7-15,14
	c-1.6,7-5,42.9,17,47c22,4.1,44.8-9.2,41-45s-29-31.9-56-48s-46.8-35-30-81C334.5,540,353,536.7,359,537z"/>
<path class="st0" d="M445,545c22.4-0.4,57.3,18.1,52,34c-5.3,15.9-14.3,17.1-21,14c-6.7-3.1-11.5-16.4-21-11c-9.5,5.4-9.5,24.8,6,33
	s66.7,15.7,89,39c22.3,23.3,73.6,88,49,110c-34,30.5-58.2,22.1-95,20s-49.9-0.8-52-18c-1.7-14.3,4.6-90.8,29-89
	c24.4,1.8,38.7,17.2,39,24s3.1,19-3,24c-10.6,8.6-23-19.8-29-5c-3.4,8.3,2.8,34.3,28,36c25.2,1.7,57-10,43-37
	c-8.1-15.7-19.9-52.2-54-58s-66.7-19.7-78-43S401.8,545.7,445,545z"/>
<path class="st0" d="M56,618"/>
<path class="st0" d="M148,233c0,0,42,6,52,7c10,1,38,2,38,2l10,29c0,0-5.5-0.6-12,0c-6.5,0.6-12,2-12,2s13.3,24.7,13,89
	c-0.3,64.3-8.7,106.6-25,134c-6.9,11.7-8,10-8,10l-33,2c0,0,32.7-50.2,42-93c9.3-42.8-2.8-89.6-15-121c-12.2-31.4-23.1-32.7-28-32
	c-4.9,0.7-6-1-6-1L148,233z"/>
<path class="st0" d="M249,242l24,1c0,0,9.8,41.7,10,59c0.2,17.3-3,39-3,39l15-2c0,0,0.5-26.1,9-58s13-39,13-39h27
	c0,0-23.4,64.8-27,104s3.6,91.7,22,124c20.1,31,21.1,35.9,20,38c-1.1,2.1-12.3,1-20,1c-7.7,0-18,1-18,1s-18.6-45.9-23-81
	c-4.4-35.1-4-64-4-64h-19c0,0-7.7,35.8-9,70c-1.3,34.2,5.8,66.3,5,69c-0.8,2.7-14.4,1.8-22,2c-7.6,0.2-15.7,1.2-18-1
	c-2.3-2.2,7.4-62.5,18-110C258.7,351.8,260.9,285,249,242z"/>
<path class="st0" d="M365,241c0,0,30.9-1.7,41-3c10.1-1.3,17-3,17-3l-9,19c0,0-16.6,4.6-28,7c-11.4,2.4-12.9,3.4-23,28
	c-10.1,24.6-10.8,48.8-9,51c1.8,2.2,11,2,11,2v18c0,0-12.5,1.5-14,7c-1.5,5.5,14.6,78.7,21,88c6.4,9.3,38.1,27.4,41,31
	c2.9,3.6,9.8,21.8,8,26s-37.1-10-53-25c-15.9-15-38.5-86-38-135C330.5,303,351,252.7,365,241z"/>
<path class="st0" d="M95,25c0,0-11.5,70.9-1,105s69,93,69,93l-27-1c0,0-52.3-22.3-72-86C39.5,57.2,58,17,58,17L95,25z"/>
<path class="st0" d="M125,28c0,0-13.4,31-5,72c8.4,41,32.2,85.1,47,101c14.8,15.9,24.4,22.8,35,25c10.6,2.2,24,2,24,2
	s-36.2-32.9-54-68s-20-71-20-71s17.7,40.3,43,55c12.6,10.6,59.8,50.7,63,86c2.9,2.1,20,0,20,0s-8.9-73.7-9-107s6-84,6-84l-37-4
	c0,0-0.6,56.2,4,78c4.6,21.8,2,44,2,44s-21.9-34.8-40-47s-31.6-38.4-35-51c-3.4-12.6-2-27-2-27L125,28z"/>
<path class="st0" d="M289,37l-6,37c0,0,6.2-4.3,19-4c12.8,0.3,33,1,33,1s-0.3,41-6,60c-5.7,19-29.4,78.3-29,91
	c-1.6,7.5,4.5,4.7,23,4c9.1-0.4,13,2,13,2s20.6-69.8,28-94c7.4-24.2,7-67,7-67s24.5-5.3,32-7c7.5-1.7,17.6-3.4,22-8
	c4.4-4.6,4-31,4-31s-43.2,11.4-74,13S289,37,289,37z"/>
<path class="st0" d="M495,1c37-5.6,60.2,18.8,57,53c-3.2,34.2-26.3,73.3-46,97c-24.5,29.5-57.3,43.1-76,57
	c-18.7,13.9-40.4,26.8-53,15c-12.6-11.8-4.2-27.8,9-44c13.2-16.2,29.7-50,35-72s12-62.1,30-81C468,8.1,487.3,2.1,495,1z"/>
<path class="st0" d="M495,36c20.9-1.7,31.6,9.6,16,46s-52.9,78.1-68,85c-15.1,6.9-21.1,1.4-13-10s19.7-21.9,25-60
	C458.8,69.6,477.1,37.5,495,36z"/>
</svg>
